<svg xmlns="http://www.w3.org/2000/svg" version="1.1" xmlns:xlink="http://www.w3.org/1999/xlink" xmlns:svgjs="http://svgjs.com/svgjs" width="1440" height="560" preserveAspectRatio="none" viewBox="0 0 1440 560"><g mask="url(&quot;#SvgjsMask1170&quot;)" fill="none"><rect width="1440" height="560" x="0" y="0" fill="rgba(195, 252, 220, 1)"></rect><path d="M0,567.504C104.301,562.639,171.666,460.052,261.95,407.602C357.784,351.928,500.387,350.36,546.923,249.771C593.432,149.24,510.888,37.71,482.622,-69.391C457.895,-163.08,456.717,-267.574,391.476,-339.216C326.778,-410.261,224.637,-424.065,133.079,-453.226C39.284,-483.1,-51.926,-516.102,-150.267,-511.761C-269.8,-506.484,-421.849,-523.135,-491.243,-425.665C-562.156,-326.062,-446.672,-187.715,-466.832,-67.12C-487.772,58.14,-653.734,159.253,-608.887,278.069C-565.017,394.297,-390.341,379.459,-278.14,432.794C-183.179,477.934,-105.03,572.403,0,567.504" fill="#6ef8aa"></path><path d="M1440 1087.616C1536.932 1081.1689999999999 1617.482 1012.111 1686.839 944.0889999999999 1746.982 885.104 1765.025 800.634 1807.055 727.6279999999999 1854.633 644.985 1964.54 580.92 1950.191 486.646 1935.817 392.207 1801.658 372.94 1741.7440000000001 298.538 1678.365 219.832 1683.647 84.76999999999998 1592.107 41.97000000000003 1501.603-0.34600000000000364 1396.797 59.012 1302.993 93.39800000000002 1214.534 125.82499999999999 1111.391 153.09199999999998 1065.107 235.154 1019.701 315.65999999999997 1086.679 415.897 1069.843 506.779 1051.871 603.792 944.005 680.588 964.72 777.053 985.317 872.9639999999999 1088.997 924.7280000000001 1171.118 978.3879999999999 1253.776 1032.399 1341.478 1094.1680000000001 1440 1087.616" fill="#ffffff"></path></g><defs><mask id="SvgjsMask1170"><rect width="1440" height="560" fill="#ffffff"></rect></mask></defs></svg>