<?xml version="1.0" standalone="no"?><svg xmlns="http://www.w3.org/2000/svg" viewBox="0 0 1440 320"><path fill="#273036" fill-opacity="1" d="M0,0L24,10.7C48,21,96,43,144,85.3C192,128,240,192,288,202.7C336,213,384,171,432,138.7C480,107,528,85,576,90.7C624,96,672,128,720,154.7C768,181,816,203,864,213.3C912,224,960,224,1008,229.3C1056,235,1104,245,1152,256C1200,267,1248,277,1296,266.7C1344,256,1392,224,1416,208L1440,192L1440,320L1416,320C1392,320,1344,320,1296,320C1248,320,1200,320,1152,320C1104,320,1056,320,1008,320C960,320,912,320,864,320C816,320,768,320,720,320C672,320,624,320,576,320C528,320,480,320,432,320C384,320,336,320,288,320C240,320,192,320,144,320C96,320,48,320,24,320L0,320Z"></path></svg>